<?xml version="1.0" encoding="UTF-8" standalone="no"?>
<svg
   xmlns:dc="http://purl.org/dc/elements/1.1/"
   xmlns:cc="http://creativecommons.org/ns#"
   xmlns:rdf="http://www.w3.org/1999/02/22-rdf-syntax-ns#"
   xmlns:svg="http://www.w3.org/2000/svg"
   xmlns="http://www.w3.org/2000/svg"
   viewBox="0 0 816 1056"
   height="1056"
   width="816"
   xml:space="preserve"
   id="svg2"
   version="1.1"><metadata
     id="metadata8"><rdf:RDF><cc:Work
         rdf:about=""><dc:format>image/svg+xml</dc:format><dc:type
           rdf:resource="http://purl.org/dc/dcmitype/StillImage" /></cc:Work></rdf:RDF></metadata><defs
     id="defs6"><clipPath
       id="clipPath18"
       clipPathUnits="userSpaceOnUse"><path
         style="clip-rule:evenodd"
         id="path16"
         d="M 0,0 H 2550 V 3300 H 0 Z" /></clipPath><clipPath
       id="clipPath30"
       clipPathUnits="userSpaceOnUse"><path
         style="clip-rule:evenodd"
         id="path28"
         d="m 78.125,103.125 h 2393.75 v 3093.75 H 78.125 Z" /></clipPath></defs><g
     transform="matrix(0.31999998,0,0,0.31999998,0,2.64e-5)"
     id="g10"><g
       id="g12"><g
         clip-path="url(#clipPath18)"
         id="g14"><g
           transform="scale(3.125)"
           id="g20"><path
             id="path22"
             style="fill:#ffffff;fill-opacity:1;fill-rule:nonzero;stroke:none"
             d="M 0,0 H 816 V 1056 H 0 Z" /></g></g></g><g
       id="g24"><g
         clip-path="url(#clipPath30)"
         id="g26"><g
           transform="matrix(2.8094816,0,0,2.8094816,82.66806,107.65474)"
           id="g32"><path
             id="path34"
             style="fill:#232f3d;fill-opacity:1;fill-rule:nonzero;stroke:none"
             d="M 74.699997,65.790001 V 50.209999 H 98.669998 V 65.790001 Z M 82.239998,44.209999 84.459999,46.43 c 0.120003,0.119999 0.270004,0.180001 0.43,0.180001 h 13.779999 v 2.399997 H 74.699997 v -4.799999 z m 17.630005,1.799999 C 99.870003,45.68 99.599998,45.41 99.269997,45.41 H 85.139999 l -2.229995,-2.220001 c -0.110001,-0.109997 -0.260002,-0.180001 -0.420006,-0.180001 h -8.39 c -0.330001,0 -0.599998,0.270001 -0.599998,0.600003 v 6 16.779998 c 0,0.160004 0.06,0.309998 0.18,0.419999 0.110001,0.11 0.260002,0.18 0.419998,0.18 h 25.169999 c 0.160003,0 0.310005,-0.07 0.420005,-0.18 0.119996,-0.110001 0.180001,-0.259995 0.180001,-0.419999 v -16.779998 -0.01 -3.59 z" /><path
             id="path36"
             style="fill:#232f3d;fill-opacity:1;fill-rule:nonzero;stroke:none"
             d="M 74.650002,109.84 V 94.910004 H 97.620003 V 109.84 Z m 7.229995,-20.679996 2.130005,2.129997 c 0.1,0.110001 0.25,0.169998 0.400002,0.169998 h 13.209999 v 2.300003 H 74.650002 v -4.599998 z m 16.89,1.729995 c 0,-0.159996 -0.06,-0.300003 -0.169999,-0.409996 -0.11,-0.11 -0.25,-0.170005 -0.400001,-0.170005 H 84.650002 L 82.519997,88.18 c -0.109993,-0.11 -0.25,-0.169998 -0.409996,-0.169998 H 74.07 c -0.150002,0 -0.290001,0.06 -0.400002,0.169998 C 73.559998,88.290001 73.5,88.440002 73.5,88.589996 V 94.330002 110.41 c 0,0.15 0.06,0.3 0.169998,0.41 0.110001,0.11 0.25,0.17 0.400002,0.17 h 24.129997 c 0.150001,0 0.290001,-0.06 0.400001,-0.17 0.110001,-0.11 0.169999,-0.26 0.169999,-0.41 v -16.079998 -0.01 -3.430001 z" /><path
             id="path38"
             style="fill:#232f3d;fill-opacity:1;fill-rule:nonzero;stroke:none"
             d="m 74.599998,148.88 v -14.27 h 21.96 v 14.27 z m 6.910004,-19.76001 2.040001,2.03 c 0.1,0.11 0.239998,0.16001 0.379997,0.16001 h 12.629998 v 2.19999 h -21.96 v -4.39 z m 16.150002,1.64 c 0,-0.14 -0.06001,-0.27999 -0.160004,-0.37999 -0.1,-0.11 -0.239998,-0.16 -0.389999,-0.16 H 84.160004 l -2.040001,-2.04001 C 82.019997,128.08 81.879997,128.02 81.739998,128.02 h -7.689995 c -0.150001,0 -0.290001,0.06 -0.389999,0.15999 C 73.559998,128.28 73.5,128.42 73.5,128.57001 v 5.48999 15.36999 c 0,0.15001 0.06,0.29001 0.160004,0.39002 0.1,0.1 0.239998,0.15999 0.389999,0.15999 h 23.059998 c 0.150001,0 0.290001,-0.06 0.389999,-0.15999 0.1,-0.10001 0.160004,-0.24001 0.160004,-0.39002 V 134.06 134.05 Z" /></g><g
           transform="matrix(0,2.8094816,-2.8094816,0,383.28259,124.51163)"
           id="g40"><path
             id="path42"
             style="fill:#ffffff;fill-opacity:1;fill-rule:nonzero;stroke:none"
             d="m 45.5,46 10,10.5 -10,10.5 z" /><path
             id="path44"
             style="fill:none;stroke:#000000;stroke-width:1;stroke-linecap:butt;stroke-linejoin:miter;stroke-miterlimit:10;stroke-dasharray:none;stroke-opacity:1"
             d="m 45.5,46 10,10.5 -10,10.5 z" /></g><g
           transform="matrix(2.8094816,0,0,2.8094816,82.66806,107.65474)"
           id="g46"><path
             id="path48"
             style="fill:none;stroke:#000000;stroke-width:1;stroke-linecap:butt;stroke-linejoin:miter;stroke-miterlimit:10;stroke-dasharray:none;stroke-opacity:1"
             d="m 50.360001,613 c 0,0 0,-153.33331 0,-460" /><path
             id="path50"
             style="fill:none;stroke:#000000;stroke-width:1;stroke-linecap:butt;stroke-linejoin:miter;stroke-miterlimit:10;stroke-dasharray:none;stroke-opacity:1"
             d="m 97.660004,446 c 0,0 0.05333,-66.33331 0.159996,-199" /></g><g
           transform="matrix(2.8094816,0,0,2.8094816,81.263313,106.25)"
           id="g52"><text
             id="text56"
             style="font-variant:normal;font-weight:normal;font-size:12px;font-family:ArialMT;-inkscape-font-specification:ArialMT;writing-mode:lr-tb;fill:#000000;fill-opacity:1;fill-rule:nonzero;stroke:none"
             transform="translate(119,59)"><tspan
               id="tspan54"
               y="0"
               x="0 8.6660156 16.669922 24.673828 32.677734 39.351562 48.017578 54.691406 62.695312 70.699219 78.703125 86.707031 94.710938 101.38477 110.05078 119.38477 128.71875">HKEY_CLASSES_ROOT</tspan></text>
<text
             id="text60"
             style="font-variant:normal;font-weight:normal;font-size:12px;font-family:ArialMT;-inkscape-font-specification:ArialMT;writing-mode:lr-tb;fill:#000000;fill-opacity:1;fill-rule:nonzero;stroke:none"
             transform="translate(119,104)"><tspan
               id="tspan58"
               y="0"
               x="0 8.6660156 16.669922 24.673828 32.677734 39.351562 48.017578 54.691406 62.695312 70.699219 78.703125 86.707031 94.710938 101.38477 110.05078 118.05469 126.05859">HKEY_CLASSES_USER</tspan></text>
<text
             id="text64"
             style="font-variant:normal;font-weight:normal;font-size:12px;font-family:ArialMT;-inkscape-font-specification:ArialMT;writing-mode:lr-tb;fill:#000000;fill-opacity:1;fill-rule:nonzero;stroke:none"
             transform="translate(119,142)"><tspan
               id="tspan62"
               y="0"
               x="0 8.6660156 16.669922 24.673828 32.677734 39.351562 48.017578 54.691406 62.695312 70.699219 78.703125 86.707031 94.710938 101.38477 111.38086 119.38477 128.05078 136.7168 140.05078 148.7168">HKEY_CLASSES_MACHINE</tspan></text>
<text
             id="text68"
             style="font-variant:normal;font-weight:normal;font-size:12px;font-family:ArialMT;-inkscape-font-specification:ArialMT;writing-mode:lr-tb;fill:#000000;fill-opacity:1;fill-rule:nonzero;stroke:none"
             transform="translate(159,182)"><tspan
               id="tspan66"
               y="0"
               x="0 8.0039062 16.669922 25.335938 32.009766 38.683594 45.357422 52.03125 58.705078 65.378906 72.052734">BCD00000000</tspan></text>
</g><g
           transform="matrix(0,2.8094816,-2.8094816,0,613.66003,354.8891)"
           id="g70"><path
             id="path72"
             style="fill:#ffffff;fill-opacity:1;fill-rule:nonzero;stroke:none"
             d="m 45.5,128 10,10.5 -10,10.5 z" /><path
             id="path74"
             style="fill:none;stroke:#000000;stroke-width:1;stroke-linecap:butt;stroke-linejoin:miter;stroke-miterlimit:10;stroke-dasharray:none;stroke-opacity:1"
             d="m 45.5,128 10,10.5 -10,10.5 z" /></g><g
           transform="matrix(0,2.8094816,-2.8094816,0,506.89978,248.12881)"
           id="g76"><path
             id="path78"
             style="fill:#ffffff;fill-opacity:1;fill-rule:nonzero;stroke:none"
             d="m 45.5,90 10,10.5 -10,10.5 z" /><path
             id="path80"
             style="fill:none;stroke:#000000;stroke-width:1;stroke-linecap:butt;stroke-linejoin:miter;stroke-miterlimit:10;stroke-dasharray:none;stroke-opacity:1"
             d="m 45.5,90 10,10.5 -10,10.5 z" /></g><g
           transform="matrix(2.8094816,0,0,2.8094816,82.66806,107.65474)"
           id="g82"><path
             id="path84"
             style="fill:#232f3d;fill-opacity:1;fill-rule:nonzero;stroke:none"
             d="m 116.44,187.88 v -14.27 h 21.95999 v 14.27 z m 6.91,-19.76 2.04,2.02999 c 0.1,0.11 0.24,0.16001 0.38,0.16001 h 12.62999 v 2.19999 H 116.44 V 168.12 Z m 16.15,1.63999 c 0,-0.29998 -0.25,-0.53999 -0.55,-0.53999 H 126 l -2.04,-2.04001 c -0.1,-0.1 -0.24,-0.15999 -0.38,-0.15999 h -7.69 c -0.15,0 -0.29,0.06 -0.39,0.15999 -0.1,0.10001 -0.16,0.24001 -0.16,0.39002 v 5.48999 15.36999 c 0,0.15001 0.06,0.29001 0.16,0.39002 0.1,0.1 0.24,0.15999 0.39,0.15999 h 23.06 c 0.3,0 0.55,-0.23999 0.55,-0.55001 V 173.06 173.05 Z" /><path
             id="path86"
             style="fill:#ffffff;fill-opacity:1;fill-rule:nonzero;stroke:none"
             d="M 92.669998,168 102.67,178.5 92.669998,189 Z" /><path
             id="path88"
             style="fill:none;stroke:#000000;stroke-width:1;stroke-linecap:butt;stroke-linejoin:miter;stroke-miterlimit:10;stroke-dasharray:none;stroke-opacity:1"
             d="M 92.669998,168 102.67,178.5 92.669998,189 Z" /></g><g
           transform="matrix(0,2.8094816,-2.8094816,0,970.94183,447.12442)"
           id="g90"><path
             id="path92"
             style="fill:#ffffff;fill-opacity:1;fill-rule:nonzero;stroke:none"
             d="M 92.669998,208 102.67,218.5 92.669998,229 Z" /><path
             id="path94"
             style="fill:none;stroke:#000000;stroke-width:1;stroke-linecap:butt;stroke-linejoin:miter;stroke-miterlimit:10;stroke-dasharray:none;stroke-opacity:1"
             d="M 92.669998,208 102.67,218.5 92.669998,229 Z" /></g><g
           transform="matrix(2.8094816,0,0,2.8094816,82.66806,107.65474)"
           id="g96"><path
             id="path98"
             style="fill:#232f3d;fill-opacity:1;fill-rule:nonzero;stroke:none"
             d="m 117.6,227.88 v -14.27 h 21.96 v 14.27 z m 6.91,-19.76 2.04,2.02999 c 0.1,0.11 0.24,0.16001 0.38,0.16001 h 12.63 v 2.19999 H 117.6 V 208.12 Z m 16.15,1.63999 c 0,-0.29998 -0.25,-0.53999 -0.55,-0.53999 h -12.95 l -2.04,-2.04001 c -0.1,-0.1 -0.24,-0.15999 -0.38,-0.15999 h -7.69 c -0.15,0 -0.29,0.06 -0.39,0.15999 -0.1,0.10001 -0.16,0.24001 -0.16,0.39002 v 5.48999 15.36999 c 0,0.15001 0.06,0.29001 0.16,0.39002 0.1,0.1 0.24,0.15999 0.39,0.15999 h 23.06 c 0.3,0 0.55,-0.23999 0.55,-0.55001 V 213.06 213.05 Z" /></g><g
           transform="matrix(2.8094816,0,0,2.8094816,81.263313,106.25)"
           id="g100"><text
             id="text104"
             style="font-variant:normal;font-weight:normal;font-size:12px;font-family:ArialMT;-inkscape-font-specification:ArialMT;writing-mode:lr-tb;fill:#000000;fill-opacity:1;fill-rule:nonzero;stroke:none"
             transform="translate(159,222)"><tspan
               id="tspan102"
               y="0"
               x="0 8.6660156 16.669922 25.335938 34.001953 44.882812 52.886719 61.552734">HARDWARE</tspan></text>
</g><g
           transform="matrix(2.8094816,0,0,2.8094816,82.66806,107.65474)"
           id="g106"><path
             id="path108"
             style="fill:#232f3d;fill-opacity:1;fill-rule:nonzero;stroke:none"
             d="M 157.60001,267.88 V 253.61 H 179.56 v 14.27 z m 6.90998,-19.76 2.04001,2.02999 c 0.1,0.11 0.23999,0.16001 0.37999,0.16001 H 179.56 v 2.19999 H 157.60001 V 248.12 Z m 16.15001,1.63999 c 0,-0.29998 -0.25,-0.53999 -0.55,-0.53999 h -12.95 l -2.04001,-2.04001 C 165.02,247.08 164.88,247.02 164.74,247.02 h -7.69 c -0.15001,0 -0.29001,0.06 -0.39,0.15999 -0.1,0.10001 -0.16,0.24001 -0.16,0.39002 v 5.48999 15.36999 c 0,0.15 0.06,0.29001 0.16,0.39002 0.1,0.1 0.23999,0.16 0.39,0.16 h 23.06 c 0.3,0 0.55,-0.24002 0.55,-0.55002 V 253.06 253.05 Z" /></g><g
           transform="matrix(2.8094816,0,0,2.8094816,81.263313,106.25)"
           id="g110"><text
             id="text114"
             style="font-variant:normal;font-weight:normal;font-size:12px;font-family:ArialMT;-inkscape-font-specification:ArialMT;writing-mode:lr-tb;fill:#000000;fill-opacity:1;fill-rule:nonzero;stroke:none"
             transform="translate(191,263)"><tspan
               id="tspan112"
               y="0"
               x="0 8.0039062 16.669922 24.673828">ACPI</tspan></text>
</g><g
           transform="matrix(2.8094816,0,0,2.8094816,82.66806,107.65474)"
           id="g116"><path
             id="path118"
             style="fill:#ffffff;fill-opacity:1;fill-rule:nonzero;stroke:none"
             d="m 135.5,248 10,10.5 -10,10.5 z" /><path
             id="path120"
             style="fill:none;stroke:#000000;stroke-width:1;stroke-linecap:butt;stroke-linejoin:miter;stroke-miterlimit:10;stroke-dasharray:none;stroke-opacity:1"
             d="m 135.5,248 10,10.5 -10,10.5 z" /><path
             id="path122"
             style="fill:#232f3d;fill-opacity:1;fill-rule:nonzero;stroke:none"
             d="M 157.60001,307.88 V 293.60999 H 179.56 V 307.88 Z m 6.90998,-19.76 2.04001,2.02999 c 0.1,0.11002 0.23999,0.16001 0.37999,0.16001 H 179.56 v 2.20001 H 157.60001 V 288.12 Z m 16.15001,1.64001 c 0,-0.30002 -0.25,-0.54001 -0.55,-0.54001 h -12.95 l -2.04001,-2.04001 c -0.1,-0.1 -0.23999,-0.16 -0.37999,-0.16 h -7.69 c -0.15001,0 -0.29001,0.06 -0.39,0.16 -0.1,0.10001 -0.16,0.24002 -0.16,0.39002 v 5.48999 15.36999 c 0,0.31 0.25,0.55002 0.55,0.55002 h 23.06 c 0.3,0 0.55,-0.24002 0.55,-0.55002 V 293.06 v -0.01 -3.28998 z" /><path
             id="path124"
             style="fill:#232f3d;fill-opacity:1;fill-rule:nonzero;stroke:none"
             d="M 157.60001,347.88 V 333.60999 H 179.56 V 347.88 Z m 6.90998,-19.76 2.04001,2.02999 c 0.1,0.11002 0.23999,0.16001 0.37999,0.16001 H 179.56 v 2.20001 H 157.60001 V 328.12 Z m 16.15001,1.64001 c 0,-0.30002 -0.25,-0.54001 -0.55,-0.54001 h -12.95 l -2.04001,-2.04001 c -0.1,-0.1 -0.23999,-0.16 -0.37999,-0.16 h -7.69 c -0.15001,0 -0.29001,0.06 -0.39,0.16 -0.1,0.10001 -0.16,0.24002 -0.16,0.39002 v 5.48999 15.36999 c 0,0.31 0.25,0.55002 0.55,0.55002 h 23.06 c 0.3,0 0.55,-0.24002 0.55,-0.55002 V 333.06 v -0.01 -3.28998 z" /><path
             id="path126"
             style="fill:#ffffff;fill-opacity:1;fill-rule:nonzero;stroke:none"
             d="m 135.5,287 10,10.5 -10,10.5 z" /><path
             id="path128"
             style="fill:none;stroke:#000000;stroke-width:1;stroke-linecap:butt;stroke-linejoin:miter;stroke-miterlimit:10;stroke-dasharray:none;stroke-opacity:1"
             d="m 135.5,287 10,10.5 -10,10.5 z" /><path
             id="path130"
             style="fill:#ffffff;fill-opacity:1;fill-rule:nonzero;stroke:none"
             d="m 135.5,327 10,10.5 -10,10.5 z" /><path
             id="path132"
             style="fill:none;stroke:#000000;stroke-width:1;stroke-linecap:butt;stroke-linejoin:miter;stroke-miterlimit:10;stroke-dasharray:none;stroke-opacity:1"
             d="m 135.5,327 10,10.5 -10,10.5 z" /></g><g
           transform="matrix(2.8094816,0,0,2.8094816,81.263313,106.25)"
           id="g134"><text
             id="text138"
             style="font-variant:normal;font-weight:normal;font-size:12px;font-family:ArialMT;-inkscape-font-specification:ArialMT;writing-mode:lr-tb;fill:#000000;fill-opacity:1;fill-rule:nonzero;stroke:none"
             transform="translate(191,302)"><tspan
               id="tspan136"
               y="0"
               x="0 8.6660156 16.669922 24.673828 33.339844 42.005859 45.339844 53.34375 60.673828 64.007812 73.341797">DESCRIPTION</tspan></text>
<text
             id="text142"
             style="font-variant:normal;font-weight:normal;font-size:12px;font-family:ArialMT;-inkscape-font-specification:ArialMT;writing-mode:lr-tb;fill:#000000;fill-opacity:1;fill-rule:nonzero;stroke:none"
             transform="translate(191,342)"><tspan
               id="tspan140"
               y="0"
               x="0 8.6660156 16.669922 24.673828 28.007812 36.673828 44.677734 54.673828 62.677734">DEVICEMAP</tspan></text>
</g><g
           transform="matrix(2.8094816,0,0,2.8094816,82.66806,107.65474)"
           id="g144"><path
             id="path146"
             style="fill:#232f3d;fill-opacity:1;fill-rule:nonzero;stroke:none"
             d="M 157.60001,387.88 V 373.60999 H 179.56 V 387.88 Z m 6.90998,-19.76 2.04001,2.02999 c 0.1,0.11002 0.23999,0.16001 0.37999,0.16001 H 179.56 v 2.20001 H 157.60001 V 368.12 Z m 16.15001,1.64001 c 0,-0.30002 -0.25,-0.54001 -0.55,-0.54001 h -12.95 l -2.04001,-2.04001 c -0.1,-0.1 -0.23999,-0.16 -0.37999,-0.16 h -7.69 c -0.15001,0 -0.29001,0.06 -0.39,0.16 -0.1,0.10001 -0.16,0.24002 -0.16,0.39002 v 5.48999 15.36999 c 0,0.31 0.25,0.55002 0.55,0.55002 h 23.06 c 0.3,0 0.55,-0.24002 0.55,-0.55002 V 373.06 v -0.01 -3.28998 z" /><path
             id="path148"
             style="fill:#ffffff;fill-opacity:1;fill-rule:nonzero;stroke:none"
             d="m 135.5,367 10,10.5 -10,10.5 z" /><path
             id="path150"
             style="fill:none;stroke:#000000;stroke-width:1;stroke-linecap:butt;stroke-linejoin:miter;stroke-miterlimit:10;stroke-dasharray:none;stroke-opacity:1"
             d="m 135.5,367 10,10.5 -10,10.5 z" /></g><g
           transform="matrix(2.8094816,0,0,2.8094816,81.263313,106.25)"
           id="g152"><text
             id="text156"
             style="font-variant:normal;font-weight:normal;font-size:12px;font-family:ArialMT;-inkscape-font-specification:ArialMT;writing-mode:lr-tb;fill:#000000;fill-opacity:1;fill-rule:nonzero;stroke:none"
             transform="translate(191,382)"><tspan
               id="tspan154"
               y="0"
               x="0 8.6660156 16.669922 24.673828 34.007812 42.673828 51.339844 60.005859 68.009766 78.005859 86.009766">RESOURCEMAP</tspan></text>
<text
             id="text160"
             style="font-variant:normal;font-weight:normal;font-size:12px;font-family:ArialMT;-inkscape-font-specification:ArialMT;writing-mode:lr-tb;fill:#000000;fill-opacity:1;fill-rule:nonzero;stroke:none"
             transform="translate(191,420)"><tspan
               id="tspan158"
               y="0"
               x="0 8.6660156 16.669922 24">UEFI</tspan></text>
</g><g
           transform="matrix(2.8094816,0,0,2.8094816,82.66806,107.65474)"
           id="g162"><path
             id="path164"
             style="fill:#232f3d;fill-opacity:1;fill-rule:nonzero;stroke:none"
             d="M 157.60001,425.88 V 411.60999 H 179.56 V 425.88 Z m 6.90998,-19.76 2.04001,2.02999 c 0.1,0.11002 0.23999,0.16001 0.37999,0.16001 H 179.56 v 2.20001 H 157.60001 V 406.12 Z m 16.15001,1.64001 c 0,-0.30002 -0.25,-0.54001 -0.55,-0.54001 h -12.95 l -2.04001,-2.04001 c -0.1,-0.1 -0.23999,-0.16 -0.37999,-0.16 h -7.69 c -0.15001,0 -0.29001,0.06 -0.39,0.16 -0.1,0.10001 -0.16,0.24002 -0.16,0.39002 v 5.48999 15.36999 c 0,0.31 0.25,0.55002 0.55,0.55002 h 23.06 c 0.3,0 0.55,-0.24002 0.55,-0.55002 V 411.06 v -0.01 -3.28998 z" /><path
             id="path166"
             style="fill:#ffffff;fill-opacity:1;fill-rule:nonzero;stroke:none"
             d="m 135.5,405.5 10,10.5 -10,10.5 z" /><path
             id="path168"
             style="fill:none;stroke:#000000;stroke-width:1;stroke-linecap:butt;stroke-linejoin:miter;stroke-miterlimit:10;stroke-dasharray:none;stroke-opacity:1"
             d="m 135.5,405.5 10,10.5 -10,10.5 z" /><path
             id="path170"
             style="fill:#232f3d;fill-opacity:1;fill-rule:nonzero;stroke:none"
             d="m 117.6,477.88 v -14.27001 h 21.96 V 477.88 Z m 6.91,-19.76 2.04,2.02999 c 0.1,0.11002 0.24,0.16001 0.38,0.16001 h 12.63 v 2.20001 H 117.6 V 458.12 Z m 16.15,1.64001 c 0,-0.30002 -0.25,-0.54001 -0.55,-0.54001 h -12.95 l -2.04,-2.04001 c -0.1,-0.1 -0.24,-0.16 -0.38,-0.16 h -7.69 c -0.15,0 -0.29,0.06 -0.39,0.16 -0.1,0.10001 -0.16,0.24002 -0.16,0.39002 v 5.48999 15.36999 c 0,0.31 0.25,0.55002 0.55,0.55002 h 23.06 c 0.3,0 0.55,-0.24002 0.55,-0.55002 V 463.06 v -0.01 -3.28998 z" /><path
             id="path172"
             style="fill:#ffffff;fill-opacity:1;fill-rule:nonzero;stroke:none"
             d="m 97.5,458 10,10.5 -10,10.5 z" /><path
             id="path174"
             style="fill:none;stroke:#000000;stroke-width:1;stroke-linecap:butt;stroke-linejoin:miter;stroke-miterlimit:10;stroke-dasharray:none;stroke-opacity:1"
             d="m 97.5,458 10,10.5 -10,10.5 z" /></g><g
           transform="matrix(2.8094816,0,0,2.8094816,81.263313,106.25)"
           id="g176"><text
             id="text180"
             style="font-variant:normal;font-weight:normal;font-size:12px;font-family:ArialMT;-inkscape-font-specification:ArialMT;writing-mode:lr-tb;fill:#000000;fill-opacity:1;fill-rule:nonzero;stroke:none"
             transform="translate(148,472)"><tspan
               id="tspan178"
               y="0"
               x="0 8.0039062 16.007812">SAM</tspan></text>
</g><g
           transform="matrix(2.8094816,0,0,2.8094816,82.66806,107.65474)"
           id="g182"><path
             id="path184"
             style="fill:#232f3d;fill-opacity:1;fill-rule:nonzero;stroke:none"
             d="m 117.6,517.88 v -14.27001 h 21.96 V 517.88 Z m 6.91,-19.76 2.04,2.02999 c 0.1,0.11002 0.24,0.16001 0.38,0.16001 h 12.63 v 2.20001 H 117.6 V 498.12 Z m 16.15,1.64001 c 0,-0.30002 -0.25,-0.54001 -0.55,-0.54001 h -12.95 l -2.04,-2.04001 c -0.1,-0.1 -0.24,-0.16 -0.38,-0.16 h -7.69 c -0.15,0 -0.29,0.06 -0.39,0.16 -0.1,0.10001 -0.16,0.24002 -0.16,0.39002 v 5.48999 15.36999 c 0,0.15003 0.06,0.28998 0.16,0.39002 0.1,0.1 0.24,0.15997 0.39,0.15997 h 23.06 c 0.14999,0 0.28999,-0.06 0.39,-0.15997 0.10001,-0.10004 0.16,-0.23999 0.16,-0.39002 V 503.06 v -0.01 -3.28998 z" /><path
             id="path186"
             style="fill:#232f3d;fill-opacity:1;fill-rule:nonzero;stroke:none"
             d="m 118.44,557.88 v -14.27001 h 21.95999 V 557.88 Z m 6.91,-19.76 2.04,2.03002 c 0.1,0.10999 0.24,0.15998 0.38,0.15998 h 12.62999 v 2.20001 H 118.44 V 538.12 Z m 16.15,1.64001 c 0,-0.29999 -0.25,-0.54004 -0.55,-0.54004 H 128 l -2.04,-2.03998 c -0.1,-0.1 -0.24,-0.15997 -0.38,-0.15997 h -7.69 c -0.3,0 -0.55,0.23999 -0.55,0.54999 v 5.48999 15.36999 c 0,0.15003 0.06,0.28998 0.16,0.39002 0.1,0.1 0.24,0.15997 0.39,0.15997 h 23.06 c 0.15001,0 0.29,-0.06 0.39,-0.15997 0.1,-0.10004 0.16,-0.23999 0.16,-0.39002 V 543.06 v -0.01 -3.28998 z" /><path
             id="path188"
             style="fill:#232f3d;fill-opacity:1;fill-rule:nonzero;stroke:none"
             d="m 118.44,597.88 v -14.27001 h 21.95999 V 597.88 Z m 6.91,-19.76 2.04,2.03002 c 0.1,0.10999 0.24,0.15998 0.38,0.15998 h 12.62999 v 2.20001 H 118.44 V 578.12 Z m 16.15,1.64001 c 0,-0.29999 -0.25,-0.54004 -0.55,-0.54004 H 128 l -2.04,-2.03998 c -0.1,-0.1 -0.24,-0.15997 -0.38,-0.15997 h -7.69 c -0.3,0 -0.55,0.23999 -0.55,0.54999 v 5.48999 15.36999 c 0,0.15003 0.06,0.28998 0.16,0.39002 0.1,0.1 0.24,0.15997 0.39,0.15997 h 23.06 c 0.15001,0 0.29,-0.06 0.39,-0.15997 0.1,-0.10004 0.16,-0.23999 0.16,-0.39002 V 583.06 v -0.01 -3.28998 z" /></g><g
           transform="matrix(2.8094816,0,0,2.8094816,81.263313,106.25)"
           id="g190"><text
             id="text194"
             style="font-variant:normal;font-weight:normal;font-size:12px;font-family:ArialMT;-inkscape-font-specification:ArialMT;writing-mode:lr-tb;fill:#000000;fill-opacity:1;fill-rule:nonzero;stroke:none"
             transform="translate(148,512)"><tspan
               id="tspan192"
               y="0"
               x="0 8.0039062 16.007812 24.673828 33.339844 42.005859 45.339844 52.669922">SECURITY</tspan></text>
<text
             id="text198"
             style="font-variant:normal;font-weight:normal;font-size:12px;font-family:ArialMT;-inkscape-font-specification:ArialMT;writing-mode:lr-tb;fill:#000000;fill-opacity:1;fill-rule:nonzero;stroke:none"
             transform="translate(148,552)"><tspan
               id="tspan196"
               y="0"
               x="0 8.0039062 17.337891 24.667969 31.998047 42.878906 50.882812 59.548828">SOFTWARE</tspan></text>
<text
             id="text202"
             style="font-variant:normal;font-weight:normal;font-size:12px;font-family:ArialMT;-inkscape-font-specification:ArialMT;writing-mode:lr-tb;fill:#000000;fill-opacity:1;fill-rule:nonzero;stroke:none"
             transform="translate(149,592)"><tspan
               id="tspan200"
               y="0"
               x="0 8.0039062 16.007812 24.011719 31.341797 39.345703">SYSTEM</tspan></text>
</g><g
           transform="matrix(2.8094816,0,0,2.8094816,82.66806,107.65474)"
           id="g204"><path
             id="path206"
             style="fill:#ffffff;fill-opacity:1;fill-rule:nonzero;stroke:none"
             d="m 45.5,627 10,10.5 -10,10.5 z" /><path
             id="path208"
             style="fill:none;stroke:#000000;stroke-width:1;stroke-linecap:butt;stroke-linejoin:miter;stroke-miterlimit:10;stroke-dasharray:none;stroke-opacity:1"
             d="m 45.5,627 10,10.5 -10,10.5 z" /></g><g
           transform="matrix(2.8094816,0,0,2.8094816,81.263313,106.25)"
           id="g210"><text
             id="text214"
             style="font-variant:normal;font-weight:normal;font-size:12px;font-family:ArialMT;-inkscape-font-specification:ArialMT;writing-mode:lr-tb;fill:#000000;fill-opacity:1;fill-rule:nonzero;stroke:none"
             transform="translate(99,642)"><tspan
               id="tspan212"
               y="0"
               x="0 8.6660156 16.669922 24.673828 32.677734 39.351562 48.017578 56.021484 64.025391 72.691406">HKEY_USERS</tspan></text>
</g><g
           transform="matrix(2.8094816,0,0,2.8094816,82.66806,107.65474)"
           id="g216"><path
             id="path218"
             style="fill:#232f3d;fill-opacity:1;fill-rule:nonzero;stroke:none"
             d="m 67.599998,647.88 v -14.27001 h 21.96 V 647.88 Z m 6.910004,-19.76 2.040001,2.03002 c 0.1,0.10999 0.239998,0.15998 0.379997,0.15998 h 12.629998 v 2.20001 h -21.96 V 628.12 Z m 16.150002,1.64001 c 0,-0.29999 -0.25,-0.54004 -0.550003,-0.54004 H 77.160004 l -2.040001,-2.03998 c -0.100006,-0.1 -0.240006,-0.15997 -0.380005,-0.15997 H 67.050003 C 66.75,627.02002 66.5,627.26001 66.5,627.57001 v 5.48999 15.36999 c 0,0.15003 0.06,0.28998 0.160004,0.39002 0.1,0.1 0.239998,0.15997 0.389999,0.15997 h 23.059998 c 0.150001,0 0.290001,-0.06 0.389999,-0.15997 0.1,-0.10004 0.160004,-0.23999 0.160004,-0.39002 V 633.06 v -0.01 -3.28998 z" /><path
             id="path220"
             style="fill:#ffffff;fill-opacity:1;fill-rule:nonzero;stroke:none"
             d="m 97.5,497 10,10.5 -10,10.5 z" /><path
             id="path222"
             style="fill:none;stroke:#000000;stroke-width:1;stroke-linecap:butt;stroke-linejoin:miter;stroke-miterlimit:10;stroke-dasharray:none;stroke-opacity:1"
             d="m 97.5,497 10,10.5 -10,10.5 z" /><path
             id="path224"
             style="fill:#ffffff;fill-opacity:1;fill-rule:nonzero;stroke:none"
             d="M 98.209999,538 108.21,548.5 98.209999,559 Z" /><path
             id="path226"
             style="fill:none;stroke:#000000;stroke-width:1;stroke-linecap:butt;stroke-linejoin:miter;stroke-miterlimit:10;stroke-dasharray:none;stroke-opacity:1"
             d="M 98.209999,538 108.21,548.5 98.209999,559 Z" /><path
             id="path228"
             style="fill:#ffffff;fill-opacity:1;fill-rule:nonzero;stroke:none"
             d="m 97.5,578 10,10.5 -10,10.5 z" /><path
             id="path230"
             style="fill:none;stroke:#000000;stroke-width:1;stroke-linecap:butt;stroke-linejoin:miter;stroke-miterlimit:10;stroke-dasharray:none;stroke-opacity:1"
             d="m 97.5,578 10,10.5 -10,10.5 z" /></g><g
           transform="matrix(2.8094816,0,0,2.8094816,81.263313,106.25)"
           id="g232"><text
             id="text236"
             style="font-variant:normal;font-weight:normal;font-size:12px;font-family:ArialMT;-inkscape-font-specification:ArialMT;writing-mode:lr-tb;fill:#000000;fill-opacity:1;fill-rule:nonzero;stroke:none"
             transform="translate(99,676)"><tspan
               id="tspan234"
               y="0"
               x="0 8.6660156 16.669922 24.673828 32.677734 39.351562 48.017578 56.683594 65.349609 74.015625 82.019531 90.685547 98.015625 104.68945 113.35547 122.68945 131.35547 138.68555 142.01953">HKEY_CURRENT_CONFIG</tspan></text>
</g><g
           transform="matrix(2.8094816,0,0,2.8094816,82.66806,107.65474)"
           id="g238"><path
             id="path240"
             style="fill:#232f3d;fill-opacity:1;fill-rule:nonzero;stroke:none"
             d="m 67.599998,680.88 v -14.27001 h 21.96 V 680.88 Z m 6.910004,-19.76 2.040001,2.03002 c 0.1,0.10999 0.239998,0.15998 0.379997,0.15998 h 12.629998 v 2.20001 h -21.96 V 661.12 Z m 16.150002,1.64001 c 0,-0.29999 -0.25,-0.54004 -0.550003,-0.54004 H 77.160004 l -2.040001,-2.03998 c -0.100006,-0.1 -0.240006,-0.15997 -0.380005,-0.15997 H 67.050003 C 66.75,660.02002 66.5,660.26001 66.5,660.57001 v 5.48999 15.36999 c 0,0.15003 0.06,0.28998 0.160004,0.39002 0.1,0.1 0.239998,0.15997 0.389999,0.15997 h 23.059998 c 0.150001,0 0.290001,-0.06 0.389999,-0.15997 0.1,-0.10004 0.160004,-0.23999 0.160004,-0.39002 V 666.06 v -0.01 -3.28998 z" /><path
             id="path242"
             style="fill:#ffffff;fill-opacity:1;fill-rule:nonzero;stroke:none"
             d="m 45.5,661 10,10.5 -10,10.5 z" /><path
             id="path244"
             style="fill:none;stroke:#000000;stroke-width:1;stroke-linecap:butt;stroke-linejoin:miter;stroke-miterlimit:10;stroke-dasharray:none;stroke-opacity:1"
             d="m 45.5,661 10,10.5 -10,10.5 z" /></g></g></g></g></svg>